<?xml version="1.0" encoding="UTF-8"?>
<svg xmlns="http://www.w3.org/2000/svg" xmlns:xlink="http://www.w3.org/1999/xlink" width="4800" height="4800" viewBox="0 0 4800 4800">
<defs>
<clipPath id="clip-0">
<path clip-rule="evenodd" d="M 937.5 0 L 3862.5 0 C 4378.128906 0 4800 421.871094 4800 937.5 L 4800 3862.5 C 4800 4378.128906 4378.128906 4800 3862.5 4800 L 937.5 4800 C 421.875 4800 0 4378.128906 0 3862.5 L 0 937.5 C 0 421.871094 421.875 0 937.5 0 "/>
</clipPath>
<linearGradient id="linear-pattern-0" gradientUnits="userSpaceOnUse" x1="-0.194405" y1="0" x2="1.194528" y2="0" gradientTransform="matrix(3455.89, 3455.89, -3455.89, 3455.89, 671.843, 671.84)">
<stop offset="0" stop-color="rgb(53.33252%, 82.351685%, 91.763306%)" stop-opacity="1"/>
<stop offset="0.125" stop-color="rgb(53.33252%, 82.351685%, 91.763306%)" stop-opacity="1"/>
<stop offset="0.140625" stop-color="rgb(53.317261%, 82.331848%, 91.752625%)" stop-opacity="1"/>
<stop offset="0.144531" stop-color="rgb(53.131104%, 82.0755%, 91.616821%)" stop-opacity="1"/>
<stop offset="0.148438" stop-color="rgb(52.958679%, 81.840515%, 91.491699%)" stop-opacity="1"/>
<stop offset="0.152344" stop-color="rgb(52.786255%, 81.604004%, 91.365051%)" stop-opacity="1"/>
<stop offset="0.15625" stop-color="rgb(52.613831%, 81.367493%, 91.239929%)" stop-opacity="1"/>
<stop offset="0.160156" stop-color="rgb(52.441406%, 81.130981%, 91.114807%)" stop-opacity="1"/>
<stop offset="0.164062" stop-color="rgb(52.268982%, 80.895996%, 90.989685%)" stop-opacity="1"/>
<stop offset="0.167969" stop-color="rgb(52.096558%, 80.659485%, 90.863037%)" stop-opacity="1"/>
<stop offset="0.171875" stop-color="rgb(51.924133%, 80.422974%, 90.737915%)" stop-opacity="1"/>
<stop offset="0.175781" stop-color="rgb(51.751709%, 80.186462%, 90.612793%)" stop-opacity="1"/>
<stop offset="0.179688" stop-color="rgb(51.580811%, 79.949951%, 90.487671%)" stop-opacity="1"/>
<stop offset="0.183594" stop-color="rgb(51.408386%, 79.71344%, 90.361023%)" stop-opacity="1"/>
<stop offset="0.1875" stop-color="rgb(51.235962%, 79.478455%, 90.235901%)" stop-opacity="1"/>
<stop offset="0.191406" stop-color="rgb(51.063538%, 79.241943%, 90.110779%)" stop-opacity="1"/>
<stop offset="0.195312" stop-color="rgb(50.891113%, 79.005432%, 89.985657%)" stop-opacity="1"/>
<stop offset="0.199219" stop-color="rgb(50.718689%, 78.768921%, 89.859009%)" stop-opacity="1"/>
<stop offset="0.203125" stop-color="rgb(50.546265%, 78.533936%, 89.733887%)" stop-opacity="1"/>
<stop offset="0.207031" stop-color="rgb(50.37384%, 78.297424%, 89.608765%)" stop-opacity="1"/>
<stop offset="0.210938" stop-color="rgb(50.201416%, 78.060913%, 89.483643%)" stop-opacity="1"/>
<stop offset="0.214844" stop-color="rgb(50.028992%, 77.824402%, 89.356995%)" stop-opacity="1"/>
<stop offset="0.21875" stop-color="rgb(49.856567%, 77.589417%, 89.231873%)" stop-opacity="1"/>
<stop offset="0.222656" stop-color="rgb(49.684143%, 77.352905%, 89.10675%)" stop-opacity="1"/>
<stop offset="0.226563" stop-color="rgb(49.511719%, 77.116394%, 88.981628%)" stop-opacity="1"/>
<stop offset="0.230469" stop-color="rgb(49.339294%, 76.879883%, 88.85498%)" stop-opacity="1"/>
<stop offset="0.234375" stop-color="rgb(49.16687%, 76.644897%, 88.729858%)" stop-opacity="1"/>
<stop offset="0.238281" stop-color="rgb(48.994446%, 76.408386%, 88.604736%)" stop-opacity="1"/>
<stop offset="0.242188" stop-color="rgb(48.822021%, 76.171875%, 88.479614%)" stop-opacity="1"/>
<stop offset="0.246094" stop-color="rgb(48.649597%, 75.935364%, 88.352966%)" stop-opacity="1"/>
<stop offset="0.25" stop-color="rgb(48.478699%, 75.698853%, 88.227844%)" stop-opacity="1"/>
<stop offset="0.253906" stop-color="rgb(48.306274%, 75.462341%, 88.102722%)" stop-opacity="1"/>
<stop offset="0.257812" stop-color="rgb(48.13385%, 75.227356%, 87.9776%)" stop-opacity="1"/>
<stop offset="0.261719" stop-color="rgb(47.961426%, 74.990845%, 87.850952%)" stop-opacity="1"/>
<stop offset="0.265625" stop-color="rgb(47.789001%, 74.754333%, 87.72583%)" stop-opacity="1"/>
<stop offset="0.269531" stop-color="rgb(47.616577%, 74.517822%, 87.599182%)" stop-opacity="1"/>
<stop offset="0.273438" stop-color="rgb(47.444153%, 74.282837%, 87.47406%)" stop-opacity="1"/>
<stop offset="0.277344" stop-color="rgb(47.271729%, 74.046326%, 87.348938%)" stop-opacity="1"/>
<stop offset="0.28125" stop-color="rgb(47.099304%, 73.809814%, 87.223816%)" stop-opacity="1"/>
<stop offset="0.285156" stop-color="rgb(46.92688%, 73.573303%, 87.097168%)" stop-opacity="1"/>
<stop offset="0.289063" stop-color="rgb(46.754456%, 73.338318%, 86.972046%)" stop-opacity="1"/>
<stop offset="0.292969" stop-color="rgb(46.582031%, 73.101807%, 86.846924%)" stop-opacity="1"/>
<stop offset="0.296875" stop-color="rgb(46.409607%, 72.865295%, 86.721802%)" stop-opacity="1"/>
<stop offset="0.300781" stop-color="rgb(46.237183%, 72.628784%, 86.595154%)" stop-opacity="1"/>
<stop offset="0.304688" stop-color="rgb(46.064758%, 72.393799%, 86.470032%)" stop-opacity="1"/>
<stop offset="0.308594" stop-color="rgb(45.892334%, 72.157288%, 86.34491%)" stop-opacity="1"/>
<stop offset="0.3125" stop-color="rgb(45.71991%, 71.920776%, 86.219788%)" stop-opacity="1"/>
<stop offset="0.316406" stop-color="rgb(45.547485%, 71.684265%, 86.09314%)" stop-opacity="1"/>
<stop offset="0.320312" stop-color="rgb(45.376587%, 71.44928%, 85.968018%)" stop-opacity="1"/>
<stop offset="0.324219" stop-color="rgb(45.204163%, 71.212769%, 85.842896%)" stop-opacity="1"/>
<stop offset="0.328125" stop-color="rgb(45.031738%, 70.976257%, 85.717773%)" stop-opacity="1"/>
<stop offset="0.332031" stop-color="rgb(44.859314%, 70.739746%, 85.591125%)" stop-opacity="1"/>
<stop offset="0.335938" stop-color="rgb(44.68689%, 70.503235%, 85.466003%)" stop-opacity="1"/>
<stop offset="0.339844" stop-color="rgb(44.514465%, 70.266724%, 85.340881%)" stop-opacity="1"/>
<stop offset="0.34375" stop-color="rgb(44.342041%, 70.031738%, 85.215759%)" stop-opacity="1"/>
<stop offset="0.347656" stop-color="rgb(44.169617%, 69.795227%, 85.089111%)" stop-opacity="1"/>
<stop offset="0.351562" stop-color="rgb(43.997192%, 69.558716%, 84.963989%)" stop-opacity="1"/>
<stop offset="0.355469" stop-color="rgb(43.824768%, 69.322205%, 84.838867%)" stop-opacity="1"/>
<stop offset="0.359375" stop-color="rgb(43.652344%, 69.087219%, 84.713745%)" stop-opacity="1"/>
<stop offset="0.363281" stop-color="rgb(43.479919%, 68.850708%, 84.587097%)" stop-opacity="1"/>
<stop offset="0.367188" stop-color="rgb(43.307495%, 68.614197%, 84.461975%)" stop-opacity="1"/>
<stop offset="0.371094" stop-color="rgb(43.135071%, 68.377686%, 84.335327%)" stop-opacity="1"/>
<stop offset="0.375" stop-color="rgb(42.962646%, 68.1427%, 84.210205%)" stop-opacity="1"/>
<stop offset="0.378906" stop-color="rgb(42.790222%, 67.906189%, 84.085083%)" stop-opacity="1"/>
<stop offset="0.382813" stop-color="rgb(42.617798%, 67.669678%, 83.959961%)" stop-opacity="1"/>
<stop offset="0.386719" stop-color="rgb(42.445374%, 67.433167%, 83.833313%)" stop-opacity="1"/>
<stop offset="0.390625" stop-color="rgb(42.274475%, 67.198181%, 83.708191%)" stop-opacity="1"/>
<stop offset="0.394531" stop-color="rgb(42.102051%, 66.96167%, 83.583069%)" stop-opacity="1"/>
<stop offset="0.398438" stop-color="rgb(41.929626%, 66.725159%, 83.457947%)" stop-opacity="1"/>
<stop offset="0.402344" stop-color="rgb(41.757202%, 66.488647%, 83.331299%)" stop-opacity="1"/>
<stop offset="0.40625" stop-color="rgb(41.584778%, 66.252136%, 83.206177%)" stop-opacity="1"/>
<stop offset="0.410156" stop-color="rgb(41.412354%, 66.015625%, 83.081055%)" stop-opacity="1"/>
<stop offset="0.414063" stop-color="rgb(41.239929%, 65.78064%, 82.955933%)" stop-opacity="1"/>
<stop offset="0.417969" stop-color="rgb(41.067505%, 65.544128%, 82.829285%)" stop-opacity="1"/>
<stop offset="0.421875" stop-color="rgb(40.895081%, 65.307617%, 82.704163%)" stop-opacity="1"/>
<stop offset="0.425781" stop-color="rgb(40.722656%, 65.071106%, 82.579041%)" stop-opacity="1"/>
<stop offset="0.429688" stop-color="rgb(40.550232%, 64.836121%, 82.453918%)" stop-opacity="1"/>
<stop offset="0.433594" stop-color="rgb(40.377808%, 64.599609%, 82.327271%)" stop-opacity="1"/>
<stop offset="0.4375" stop-color="rgb(40.205383%, 64.363098%, 82.202148%)" stop-opacity="1"/>
<stop offset="0.441406" stop-color="rgb(40.032959%, 64.126587%, 82.077026%)" stop-opacity="1"/>
<stop offset="0.445312" stop-color="rgb(39.860535%, 63.891602%, 81.951904%)" stop-opacity="1"/>
<stop offset="0.449219" stop-color="rgb(39.68811%, 63.65509%, 81.825256%)" stop-opacity="1"/>
<stop offset="0.453125" stop-color="rgb(39.515686%, 63.418579%, 81.700134%)" stop-opacity="1"/>
<stop offset="0.457031" stop-color="rgb(39.343262%, 63.182068%, 81.575012%)" stop-opacity="1"/>
<stop offset="0.460937" stop-color="rgb(39.172363%, 62.947083%, 81.44989%)" stop-opacity="1"/>
<stop offset="0.464844" stop-color="rgb(38.999939%, 62.710571%, 81.323242%)" stop-opacity="1"/>
<stop offset="0.46875" stop-color="rgb(38.827515%, 62.47406%, 81.19812%)" stop-opacity="1"/>
<stop offset="0.472656" stop-color="rgb(38.65509%, 62.237549%, 81.071472%)" stop-opacity="1"/>
<stop offset="0.476562" stop-color="rgb(38.482666%, 62.001038%, 80.94635%)" stop-opacity="1"/>
<stop offset="0.480469" stop-color="rgb(38.310242%, 61.764526%, 80.821228%)" stop-opacity="1"/>
<stop offset="0.484375" stop-color="rgb(38.137817%, 61.529541%, 80.696106%)" stop-opacity="1"/>
<stop offset="0.488281" stop-color="rgb(37.965393%, 61.29303%, 80.569458%)" stop-opacity="1"/>
<stop offset="0.492188" stop-color="rgb(37.792969%, 61.056519%, 80.444336%)" stop-opacity="1"/>
<stop offset="0.496094" stop-color="rgb(37.620544%, 60.820007%, 80.319214%)" stop-opacity="1"/>
<stop offset="0.5" stop-color="rgb(37.44812%, 60.585022%, 80.194092%)" stop-opacity="1"/>
<stop offset="0.503906" stop-color="rgb(37.275696%, 60.348511%, 80.067444%)" stop-opacity="1"/>
<stop offset="0.507812" stop-color="rgb(37.103271%, 60.112%, 79.942322%)" stop-opacity="1"/>
<stop offset="0.511719" stop-color="rgb(36.930847%, 59.875488%, 79.8172%)" stop-opacity="1"/>
<stop offset="0.515625" stop-color="rgb(36.758423%, 59.640503%, 79.692078%)" stop-opacity="1"/>
<stop offset="0.519531" stop-color="rgb(36.585999%, 59.403992%, 79.56543%)" stop-opacity="1"/>
<stop offset="0.523438" stop-color="rgb(36.413574%, 59.16748%, 79.440308%)" stop-opacity="1"/>
<stop offset="0.527344" stop-color="rgb(36.24115%, 58.930969%, 79.315186%)" stop-opacity="1"/>
<stop offset="0.53125" stop-color="rgb(36.070251%, 58.695984%, 79.190063%)" stop-opacity="1"/>
<stop offset="0.535156" stop-color="rgb(35.897827%, 58.459473%, 79.063416%)" stop-opacity="1"/>
<stop offset="0.539062" stop-color="rgb(35.725403%, 58.222961%, 78.938293%)" stop-opacity="1"/>
<stop offset="0.542969" stop-color="rgb(35.552979%, 57.98645%, 78.813171%)" stop-opacity="1"/>
<stop offset="0.546875" stop-color="rgb(35.380554%, 57.751465%, 78.688049%)" stop-opacity="1"/>
<stop offset="0.550781" stop-color="rgb(35.20813%, 57.514954%, 78.561401%)" stop-opacity="1"/>
<stop offset="0.554688" stop-color="rgb(35.035706%, 57.278442%, 78.436279%)" stop-opacity="1"/>
<stop offset="0.558594" stop-color="rgb(34.863281%, 57.041931%, 78.311157%)" stop-opacity="1"/>
<stop offset="0.5625" stop-color="rgb(34.690857%, 56.80542%, 78.186035%)" stop-opacity="1"/>
<stop offset="0.566406" stop-color="rgb(34.518433%, 56.568909%, 78.059387%)" stop-opacity="1"/>
<stop offset="0.570313" stop-color="rgb(34.346008%, 56.333923%, 77.934265%)" stop-opacity="1"/>
<stop offset="0.574219" stop-color="rgb(34.173584%, 56.097412%, 77.809143%)" stop-opacity="1"/>
<stop offset="0.578125" stop-color="rgb(34.00116%, 55.860901%, 77.684021%)" stop-opacity="1"/>
<stop offset="0.582031" stop-color="rgb(33.828735%, 55.62439%, 77.557373%)" stop-opacity="1"/>
<stop offset="0.585938" stop-color="rgb(33.656311%, 55.389404%, 77.432251%)" stop-opacity="1"/>
<stop offset="0.589844" stop-color="rgb(33.483887%, 55.152893%, 77.305603%)" stop-opacity="1"/>
<stop offset="0.59375" stop-color="rgb(33.311462%, 54.916382%, 77.180481%)" stop-opacity="1"/>
<stop offset="0.597656" stop-color="rgb(33.139038%, 54.679871%, 77.055359%)" stop-opacity="1"/>
<stop offset="0.601563" stop-color="rgb(32.96814%, 54.444885%, 76.930237%)" stop-opacity="1"/>
<stop offset="0.605469" stop-color="rgb(32.795715%, 54.208374%, 76.803589%)" stop-opacity="1"/>
<stop offset="0.609375" stop-color="rgb(32.623291%, 53.971863%, 76.678467%)" stop-opacity="1"/>
<stop offset="0.613281" stop-color="rgb(32.450867%, 53.735352%, 76.553345%)" stop-opacity="1"/>
<stop offset="0.617188" stop-color="rgb(32.278442%, 53.500366%, 76.428223%)" stop-opacity="1"/>
<stop offset="0.621094" stop-color="rgb(32.106018%, 53.263855%, 76.301575%)" stop-opacity="1"/>
<stop offset="0.625" stop-color="rgb(31.933594%, 53.027344%, 76.176453%)" stop-opacity="1"/>
<stop offset="0.628906" stop-color="rgb(31.761169%, 52.790833%, 76.051331%)" stop-opacity="1"/>
<stop offset="0.632813" stop-color="rgb(31.588745%, 52.554321%, 75.926208%)" stop-opacity="1"/>
<stop offset="0.636719" stop-color="rgb(31.416321%, 52.31781%, 75.799561%)" stop-opacity="1"/>
<stop offset="0.640625" stop-color="rgb(31.243896%, 52.082825%, 75.674438%)" stop-opacity="1"/>
<stop offset="0.644531" stop-color="rgb(31.071472%, 51.846313%, 75.549316%)" stop-opacity="1"/>
<stop offset="0.648438" stop-color="rgb(30.899048%, 51.609802%, 75.424194%)" stop-opacity="1"/>
<stop offset="0.652344" stop-color="rgb(30.726624%, 51.373291%, 75.297546%)" stop-opacity="1"/>
<stop offset="0.65625" stop-color="rgb(30.554199%, 51.138306%, 75.172424%)" stop-opacity="1"/>
<stop offset="0.660156" stop-color="rgb(30.381775%, 50.901794%, 75.047302%)" stop-opacity="1"/>
<stop offset="0.664063" stop-color="rgb(30.209351%, 50.665283%, 74.92218%)" stop-opacity="1"/>
<stop offset="0.667969" stop-color="rgb(30.036926%, 50.428772%, 74.795532%)" stop-opacity="1"/>
<stop offset="0.671875" stop-color="rgb(29.864502%, 50.193787%, 74.67041%)" stop-opacity="1"/>
<stop offset="0.675781" stop-color="rgb(29.692078%, 49.957275%, 74.545288%)" stop-opacity="1"/>
<stop offset="0.679688" stop-color="rgb(29.521179%, 49.720764%, 74.420166%)" stop-opacity="1"/>
<stop offset="0.683594" stop-color="rgb(29.348755%, 49.484253%, 74.293518%)" stop-opacity="1"/>
<stop offset="0.6875" stop-color="rgb(29.176331%, 49.249268%, 74.168396%)" stop-opacity="1"/>
<stop offset="0.691406" stop-color="rgb(29.003906%, 49.012756%, 74.041748%)" stop-opacity="1"/>
<stop offset="0.695312" stop-color="rgb(28.831482%, 48.776245%, 73.916626%)" stop-opacity="1"/>
<stop offset="0.699219" stop-color="rgb(28.659058%, 48.539734%, 73.791504%)" stop-opacity="1"/>
<stop offset="0.703125" stop-color="rgb(28.486633%, 48.303223%, 73.666382%)" stop-opacity="1"/>
<stop offset="0.707031" stop-color="rgb(28.314209%, 48.066711%, 73.539734%)" stop-opacity="1"/>
<stop offset="0.710938" stop-color="rgb(28.141785%, 47.831726%, 73.414612%)" stop-opacity="1"/>
<stop offset="0.714844" stop-color="rgb(27.96936%, 47.595215%, 73.28949%)" stop-opacity="1"/>
<stop offset="0.71875" stop-color="rgb(27.796936%, 47.358704%, 73.164368%)" stop-opacity="1"/>
<stop offset="0.722656" stop-color="rgb(27.624512%, 47.122192%, 73.03772%)" stop-opacity="1"/>
<stop offset="0.726562" stop-color="rgb(27.452087%, 46.887207%, 72.912598%)" stop-opacity="1"/>
<stop offset="0.730469" stop-color="rgb(27.279663%, 46.650696%, 72.787476%)" stop-opacity="1"/>
<stop offset="0.734375" stop-color="rgb(27.107239%, 46.414185%, 72.662354%)" stop-opacity="1"/>
<stop offset="0.738281" stop-color="rgb(26.934814%, 46.177673%, 72.535706%)" stop-opacity="1"/>
<stop offset="0.742188" stop-color="rgb(26.76239%, 45.942688%, 72.410583%)" stop-opacity="1"/>
<stop offset="0.746094" stop-color="rgb(26.589966%, 45.706177%, 72.285461%)" stop-opacity="1"/>
<stop offset="0.75" stop-color="rgb(26.419067%, 45.469666%, 72.160339%)" stop-opacity="1"/>
<stop offset="0.753906" stop-color="rgb(26.246643%, 45.233154%, 72.033691%)" stop-opacity="1"/>
<stop offset="0.757812" stop-color="rgb(26.074219%, 44.998169%, 71.908569%)" stop-opacity="1"/>
<stop offset="0.761719" stop-color="rgb(25.901794%, 44.761658%, 71.783447%)" stop-opacity="1"/>
<stop offset="0.765625" stop-color="rgb(25.72937%, 44.525146%, 71.658325%)" stop-opacity="1"/>
<stop offset="0.769531" stop-color="rgb(25.556946%, 44.288635%, 71.531677%)" stop-opacity="1"/>
<stop offset="0.773438" stop-color="rgb(25.384521%, 44.052124%, 71.406555%)" stop-opacity="1"/>
<stop offset="0.777344" stop-color="rgb(25.212097%, 43.815613%, 71.281433%)" stop-opacity="1"/>
<stop offset="0.78125" stop-color="rgb(25.039673%, 43.580627%, 71.156311%)" stop-opacity="1"/>
<stop offset="0.785156" stop-color="rgb(24.867249%, 43.344116%, 71.029663%)" stop-opacity="1"/>
<stop offset="0.789063" stop-color="rgb(24.694824%, 43.107605%, 70.904541%)" stop-opacity="1"/>
<stop offset="0.792969" stop-color="rgb(24.5224%, 42.871094%, 70.777893%)" stop-opacity="1"/>
<stop offset="0.796875" stop-color="rgb(24.349976%, 42.636108%, 70.652771%)" stop-opacity="1"/>
<stop offset="0.800781" stop-color="rgb(24.177551%, 42.399597%, 70.527649%)" stop-opacity="1"/>
<stop offset="0.804688" stop-color="rgb(24.005127%, 42.163086%, 70.402527%)" stop-opacity="1"/>
<stop offset="0.808594" stop-color="rgb(23.832703%, 41.926575%, 70.275879%)" stop-opacity="1"/>
<stop offset="0.8125" stop-color="rgb(23.660278%, 41.691589%, 70.150757%)" stop-opacity="1"/>
<stop offset="0.816406" stop-color="rgb(23.487854%, 41.455078%, 70.025635%)" stop-opacity="1"/>
<stop offset="0.820313" stop-color="rgb(23.316956%, 41.218567%, 69.900513%)" stop-opacity="1"/>
<stop offset="0.824219" stop-color="rgb(23.144531%, 40.982056%, 69.773865%)" stop-opacity="1"/>
<stop offset="0.828125" stop-color="rgb(22.972107%, 40.74707%, 69.648743%)" stop-opacity="1"/>
<stop offset="0.832031" stop-color="rgb(22.799683%, 40.510559%, 69.523621%)" stop-opacity="1"/>
<stop offset="0.835938" stop-color="rgb(22.627258%, 40.274048%, 69.398499%)" stop-opacity="1"/>
<stop offset="0.839844" stop-color="rgb(22.454834%, 40.037537%, 69.271851%)" stop-opacity="1"/>
<stop offset="0.84375" stop-color="rgb(22.28241%, 39.802551%, 69.146729%)" stop-opacity="1"/>
<stop offset="0.847656" stop-color="rgb(22.109985%, 39.56604%, 69.021606%)" stop-opacity="1"/>
<stop offset="0.851563" stop-color="rgb(21.937561%, 39.329529%, 68.896484%)" stop-opacity="1"/>
<stop offset="0.855469" stop-color="rgb(21.765137%, 39.093018%, 68.769836%)" stop-opacity="1"/>
<stop offset="0.859375" stop-color="rgb(21.592712%, 38.856506%, 68.644714%)" stop-opacity="1"/>
<stop offset="0.875" stop-color="rgb(21.580505%, 38.839722%, 68.635559%)" stop-opacity="1"/>
<stop offset="1" stop-color="rgb(21.568298%, 38.822937%, 68.626404%)" stop-opacity="1"/>
</linearGradient>
</defs>
<g clip-path="url(#clip-0)">
<path fill-rule="nonzero" fill="url(#linear-pattern-0)" d="M 2400 -2400 L -2400 2400 L 2400 7200 L 7200 2400 Z M 2400 -2400 "/>
</g>
<path fill-rule="nonzero" fill="rgb(100%, 100%, 99.21875%)" fill-opacity="1" d="M 4020.738281 674.988281 L 2692.929688 674.988281 C 2682.960938 674.988281 2673.5 676.960938 2664.949219 680.519531 C 2655.898438 684.289062 2647.730469 689.78125 2640.871094 696.558594 L 2640.769531 696.660156 L 2640.839844 696.730469 L 2640.621094 696.949219 L 2640.550781 696.878906 C 2633.71875 703.769531 2628.199219 711.96875 2624.421875 721.058594 C 2620.859375 729.609375 2618.878906 739.070312 2618.878906 749.039062 L 2618.878906 1331.980469 C 2618.878906 1341.980469 2620.871094 1351.460938 2624.449219 1360.039062 C 2628.25 1369.160156 2633.828125 1377.410156 2640.730469 1384.328125 L 2644.070312 1387.679688 C 2650.101562 1392.96875 2657.058594 1397.328125 2664.691406 1400.5 C 2673.269531 1404.058594 2682.808594 1406.03125 2692.929688 1406.03125 L 4020.738281 1406.03125 C 4030.859375 1406.03125 4040.398438 1404.058594 4048.980469 1400.5 C 4058.109375 1396.710938 4066.289062 1391.210938 4073.050781 1384.441406 L 4073.199219 1384.300781 C 4079.960938 1377.53125 4085.460938 1369.359375 4089.25 1360.21875 C 4092.820312 1351.640625 4094.789062 1342.101562 4094.789062 1331.980469 L 4094.789062 749.039062 C 4094.789062 738.921875 4092.820312 729.378906 4089.25 720.800781 C 4086.078125 713.160156 4081.71875 706.191406 4076.410156 700.160156 L 4073.089844 696.839844 C 4066.171875 689.941406 4057.921875 684.359375 4048.800781 680.558594 C 4040.210938 676.96875 4030.738281 674.988281 4020.738281 674.988281 Z M 2692.929688 599.988281 L 4020.738281 599.988281 C 4040.691406 599.988281 4059.871094 604.058594 4077.511719 611.421875 C 4083.921875 614.089844 4090.101562 617.199219 4096.039062 620.710938 L 4099.488281 617.261719 L 4125.929688 643.699219 C 4139.75 657.511719 4150.859375 673.941406 4158.390625 692.089844 C 4165.730469 709.769531 4169.789062 729.011719 4169.789062 749.039062 L 4169.789062 1331.980469 C 4169.789062 1352.011719 4165.730469 1371.261719 4158.390625 1388.941406 C 4150.878906 1407.019531 4139.828125 1423.398438 4126.078125 1437.179688 L 4126.011719 1437.25 L 4125.929688 1437.320312 C 4112.160156 1451.070312 4095.78125 1462.128906 4077.691406 1469.640625 C 4060.011719 1476.980469 4040.769531 1481.03125 4020.738281 1481.03125 L 2692.929688 1481.03125 C 2672.910156 1481.03125 2653.660156 1476.980469 2635.980469 1469.640625 C 2617.828125 1462.101562 2601.398438 1450.988281 2587.589844 1437.179688 L 2560.898438 1410.480469 L 2564.441406 1407.011719 C 2561 1401.160156 2557.941406 1395.058594 2555.308594 1388.75 C 2547.949219 1371.121094 2543.878906 1351.929688 2543.878906 1331.980469 L 2543.878906 749.039062 C 2543.878906 729.128906 2547.941406 709.96875 2555.28125 692.339844 C 2557.929688 685.96875 2561.03125 679.800781 2564.519531 673.878906 L 2561.078125 670.441406 L 2587.589844 643.921875 L 2587.710938 643.808594 L 2587.820312 643.699219 L 2598.800781 632.710938 L 2600.28125 632.710938 C 2611.171875 624 2623.261719 616.789062 2636.238281 611.390625 C 2653.871094 604.050781 2673.03125 599.988281 2692.929688 599.988281 "/>
<path fill-rule="nonzero" fill="rgb(100%, 100%, 99.21875%)" fill-opacity="1" d="M 3638.058594 1194.441406 L 3738.269531 1194.441406 C 3755.511719 1194.441406 3767.609375 1193.78125 3774.550781 1192.558594 C 3786.828125 1190.308594 3797.039062 1186.660156 3805.289062 1181.5 C 3813.539062 1176.441406 3820.289062 1168.941406 3825.628906 1159.191406 C 3830.890625 1149.351562 3833.601562 1138.101562 3833.601562 1125.261719 C 3833.601562 1110.261719 3829.761719 1097.230469 3822.070312 1086.070312 C 3814.390625 1075.011719 3803.699219 1067.230469 3790.011719 1062.730469 C 3776.421875 1058.320312 3756.738281 1056.078125 3731.140625 1056.078125 L 3638.058594 1056.078125 Z M 3638.058594 1008.550781 L 3725.140625 1008.550781 C 3748.671875 1008.550781 3765.640625 1006.949219 3775.949219 1003.859375 C 3789.449219 999.828125 3799.671875 993.171875 3806.511719 983.800781 C 3813.351562 974.429688 3816.820312 962.710938 3816.820312 948.648438 C 3816.820312 935.328125 3813.640625 923.519531 3807.261719 913.398438 C 3800.789062 903.179688 3791.609375 896.238281 3779.789062 892.5 C 3767.890625 888.738281 3747.449219 886.871094 3718.488281 886.871094 L 3638.058594 886.871094 Z M 3584.71875 1241.960938 L 3584.71875 839.339844 L 3735.828125 839.339844 C 3766.578125 839.339844 3791.230469 843.46875 3809.789062 851.53125 C 3828.449219 859.691406 3842.980469 872.25 3853.480469 889.210938 C 3863.96875 906.089844 3869.320312 923.800781 3869.320312 942.359375 C 3869.320312 959.519531 3864.628906 975.738281 3855.261719 990.921875 C 3845.980469 1006.109375 3831.820312 1018.390625 3812.980469 1027.761719 C 3837.351562 1034.890625 3856.011719 1047.078125 3869.128906 1064.230469 C 3882.25 1081.480469 3888.820312 1101.820312 3888.820312 1125.261719 C 3888.820312 1144.101562 3884.789062 1161.628906 3876.820312 1177.839844 C 3868.851562 1194.058594 3859.011719 1206.53125 3847.289062 1215.339844 C 3835.570312 1224.148438 3820.851562 1230.710938 3803.230469 1235.21875 C 3785.609375 1239.710938 3763.949219 1241.960938 3738.269531 1241.960938 Z M 3188.191406 1046.699219 C 3188.191406 1095.261719 3201.21875 1133.410156 3227.28125 1161.351562 C 3253.429688 1189.28125 3286.148438 1203.25 3325.519531 1203.25 C 3365.640625 1203.25 3398.640625 1189.191406 3424.511719 1160.96875 C 3450.390625 1132.75 3463.421875 1092.730469 3463.421875 1040.890625 C 3463.421875 1008.171875 3457.789062 979.578125 3446.730469 955.121094 C 3435.671875 930.648438 3419.449219 911.710938 3398.171875 898.210938 C 3376.800781 884.808594 3352.898438 878.058594 3326.371094 878.058594 C 3288.589844 878.058594 3256.148438 890.988281 3228.96875 916.960938 C 3201.78125 942.839844 3188.191406 986.140625 3188.191406 1046.699219 Z M 3133.261719 1045.859375 C 3133.261719 979.019531 3151.160156 926.710938 3187.070312 888.929688 C 3222.96875 851.160156 3269.28125 832.21875 3326.089844 832.21875 C 3363.210938 832.21875 3396.769531 841.121094 3426.578125 858.839844 C 3456.390625 876.648438 3479.171875 901.398438 3494.820312 933.179688 C 3510.46875 964.859375 3518.261719 1000.949219 3518.261719 1041.171875 C 3518.261719 1082.039062 3510.101562 1118.601562 3493.601562 1150.75 C 3477.101562 1183 3453.761719 1207.371094 3423.578125 1223.96875 C 3393.300781 1240.558594 3360.769531 1248.808594 3325.800781 1248.808594 C 3287.839844 1248.808594 3254 1239.710938 3224.191406 1221.339844 C 3194.289062 1203.058594 3171.691406 1178.03125 3156.320312 1146.351562 C 3140.941406 1114.761719 3133.261719 1081.199219 3133.261719 1045.859375 Z M 2841.070312 1127.691406 L 2889.160156 1121.128906 C 2890.378906 1151.878906 2896.191406 1172.96875 2906.398438 1184.308594 C 2916.710938 1195.648438 2930.871094 1201.28125 2948.960938 1201.28125 C 2962.371094 1201.28125 2973.898438 1198.28125 2983.550781 1192.101562 C 2993.300781 1186 2999.960938 1177.660156 3003.621094 1167.160156 C 3007.269531 1156.558594 3009.148438 1139.789062 3009.148438 1116.71875 L 3009.148438 839.339844 L 3062.390625 839.339844 L 3062.390625 1113.730469 C 3062.390625 1147.378906 3058.359375 1173.53125 3050.199219 1192 C 3042.050781 1210.46875 3029.109375 1224.53125 3011.488281 1234.28125 C 2993.769531 1243.929688 2973.050781 1248.808594 2949.25 1248.808594 C 2913.898438 1248.808594 2886.910156 1238.679688 2868.058594 1218.339844 C 2849.308594 1198 2840.308594 1167.808594 2841.070312 1127.691406 "/>
<path fill-rule="nonzero" fill="rgb(100%, 100%, 99.21875%)" fill-opacity="1" d="M 1645.648438 3189.539062 L 1519.929688 3231.558594 C 1304.238281 3303.648438 1097.839844 3386.070312 946.792969 3506.191406 C 800.128906 3622.820312 705.210938 3776.578125 705.210938 3994.441406 L 705.210938 4125.011719 L 3319.339844 4125.011719 L 3319.339844 3994.441406 C 3319.339844 3776.589844 3224.421875 3622.820312 3077.75 3506.191406 C 2926.710938 3386.070312 2720.308594 3303.648438 2504.621094 3231.558594 L 2378.898438 3189.539062 L 2366.300781 3182.359375 C 2347.449219 3166.039062 2331.578125 3148.878906 2319.300781 3130.660156 C 2306.210938 3111.230469 2297 3090.449219 2292.339844 3068.078125 L 2288.53125 3049.78125 L 2300.980469 3035.699219 C 2329.570312 3003.390625 2382.21875 2938.449219 2428.621094 2851.710938 C 2458.441406 2795.96875 2485.660156 2731.191406 2502.070312 2660.328125 L 2506.230469 2642.359375 L 2522.730469 2634.691406 C 2530.980469 2630.851562 2538.828125 2625.949219 2546.230469 2620.121094 C 2554.289062 2613.769531 2561.851562 2606.378906 2568.871094 2598.121094 C 2578.359375 2586.941406 2586.910156 2574.101562 2594.359375 2560.109375 C 2602.210938 2545.371094 2608.988281 2529.121094 2614.5 2511.941406 C 2619.859375 2495.269531 2624.03125 2477.828125 2626.839844 2460.171875 C 2629.511719 2443.378906 2630.921875 2425.878906 2630.921875 2408.148438 C 2630.921875 2380.191406 2627.25 2352.640625 2619.328125 2327.289062 C 2612.199219 2304.488281 2601.628906 2283.351562 2587.179688 2265.25 L 2579.269531 2238 L 2579.75 2233.53125 C 2581.78125 2214.628906 2584.339844 2190.828125 2586.519531 2161.859375 C 2588.578125 2134.628906 2590.121094 2103.769531 2590.121094 2070.53125 C 2590.121094 1950.148438 2571.191406 1802.738281 2489.738281 1687.121094 C 2409.160156 1572.710938 2264.960938 1487.53125 2012.269531 1487.53125 C 1759.589844 1487.53125 1615.390625 1572.710938 1534.808594 1687.121094 C 1453.371094 1802.75 1434.429688 1950.148438 1434.429688 2070.53125 C 1434.429688 2136.71875 1440.621094 2194.601562 1444.738281 2232.921875 L 1444.800781 2232.910156 L 1444.800781 2233.519531 L 1445.289062 2238 L 1437.371094 2265.25 C 1422.929688 2283.351562 1412.351562 2304.480469 1405.21875 2327.289062 C 1397.300781 2352.628906 1393.628906 2380.179688 1393.628906 2408.148438 C 1393.628906 2425.871094 1395.039062 2443.371094 1397.710938 2460.171875 C 1400.519531 2477.820312 1404.691406 2495.261719 1410.050781 2511.941406 C 1415.558594 2529.121094 1422.339844 2545.371094 1430.199219 2560.121094 C 1437.640625 2574.101562 1446.191406 2586.941406 1455.691406 2598.109375 C 1462.699219 2606.378906 1470.269531 2613.761719 1478.328125 2620.109375 C 1485.730469 2625.941406 1493.578125 2630.851562 1501.828125 2634.691406 L 1518.320312 2642.359375 L 1522.480469 2660.328125 C 1543.390625 2750.558594 1581.789062 2830.960938 1620.820312 2895.410156 C 1660.070312 2960.25 1700 3009.050781 1723.570312 3035.699219 L 1736.019531 3049.78125 L 1732.210938 3068.070312 C 1727.550781 3090.449219 1718.351562 3111.21875 1705.25 3130.660156 C 1692.96875 3148.878906 1677.101562 3166.039062 1658.25 3182.359375 Z M 1496.199219 3160.660156 L 1614.671875 3121.070312 C 1626.03125 3110.671875 1635.628906 3099.921875 1643.140625 3088.761719 C 1647.460938 3082.351562 1651.039062 3075.839844 1653.820312 3069.238281 C 1628.199219 3038.871094 1592.359375 2992.570312 1556.949219 2934.078125 C 1516.820312 2867.800781 1477.261719 2785.929688 1453.660156 2693.910156 C 1446.21875 2689.46875 1439 2684.488281 1432.039062 2679 C 1420.140625 2669.628906 1408.949219 2658.699219 1398.550781 2646.449219 C 1385.871094 2631.519531 1374.371094 2614.230469 1364.28125 2595.269531 C 1354.199219 2576.351562 1345.648438 2555.960938 1338.851562 2534.789062 C 1332.359375 2514.589844 1327.300781 2493.398438 1323.878906 2471.890625 C 1320.441406 2450.261719 1318.628906 2428.789062 1318.628906 2408.148438 C 1318.628906 2373.140625 1323.410156 2338.050781 1333.730469 2305.019531 C 1341.949219 2278.730469 1353.679688 2253.820312 1369.308594 2231.371094 C 1365.019531 2191.121094 1359.429688 2134.019531 1359.429688 2070.53125 C 1359.429688 1938.410156 1380.960938 1775.550781 1473.578125 1644.050781 C 1567.050781 1511.339844 1730.53125 1412.53125 2012.269531 1412.53125 C 2294.011719 1412.53125 2457.488281 1511.339844 2550.96875 1644.050781 C 2643.589844 1775.539062 2665.121094 1938.398438 2665.121094 2070.53125 C 2665.121094 2105.050781 2663.449219 2137.980469 2661.230469 2167.429688 C 2659.480469 2190.78125 2657.230469 2212.769531 2655.238281 2231.378906 C 2670.871094 2253.828125 2682.601562 2278.738281 2690.820312 2305.03125 C 2701.140625 2338.058594 2705.921875 2373.148438 2705.921875 2408.148438 C 2705.921875 2428.800781 2704.101562 2450.269531 2700.671875 2471.890625 C 2697.25 2493.410156 2692.191406 2514.601562 2685.699219 2534.789062 C 2678.898438 2555.960938 2670.351562 2576.351562 2660.28125 2595.269531 C 2650.179688 2614.230469 2638.679688 2631.519531 2626 2646.460938 C 2615.601562 2658.699219 2604.410156 2669.628906 2592.519531 2679 C 2585.550781 2684.488281 2578.339844 2689.46875 2570.898438 2693.910156 C 2552.628906 2765.140625 2524.808594 2830.289062 2494.539062 2886.871094 C 2451.261719 2967.78125 2402.929688 3031.078125 2370.730469 3069.238281 C 2373.511719 3075.851562 2377.089844 3082.351562 2381.410156 3088.769531 C 2388.921875 3099.921875 2398.519531 3110.671875 2409.878906 3121.070312 L 2528.351562 3160.660156 C 2751.019531 3235.078125 2964.800781 3320.730469 3124.339844 3447.601562 C 3288.25 3577.949219 3394.339844 3750.109375 3394.339844 3994.441406 L 3394.339844 4200.011719 L 630.210938 4200.011719 L 630.210938 3994.441406 C 630.210938 3750.109375 736.292969 3577.949219 900.210938 3447.601562 C 1059.75 3320.730469 1273.53125 3235.078125 1496.199219 3160.660156 "/>
</svg>
