<?xml version="1.0" encoding="UTF-8"?>
<svg xmlns="http://www.w3.org/2000/svg" xmlns:xlink="http://www.w3.org/1999/xlink" width="3873" height="3873" viewBox="0 0 3873 3873">
<defs>
<clipPath id="clip-0">
<path clip-rule="evenodd" d="M 1936.5 0 C 3006 0 3873 867 3873 1936.5 C 3873 3006 3006 3873 1936.5 3873 C 867 3873 0 3006 0 1936.5 C 0 867 867 0 1936.5 0 "/>
</clipPath>
<linearGradient id="linear-pattern-0" gradientUnits="userSpaceOnUse" x1="-0.207108" y1="0" x2="1.207108" y2="0" gradientTransform="matrix(2738.62, 2738.62, -2738.62, 2738.62, 567.188, 567.19)">
<stop offset="0" stop-color="rgb(92.939758%, 28.234863%, 57.646179%)" stop-opacity="1"/>
<stop offset="0.125" stop-color="rgb(92.939758%, 28.234863%, 57.646179%)" stop-opacity="1"/>
<stop offset="0.140625" stop-color="rgb(92.939758%, 28.234863%, 57.646179%)" stop-opacity="1"/>
<stop offset="0.148438" stop-color="rgb(92.900085%, 28.210449%, 57.615662%)" stop-opacity="1"/>
<stop offset="0.15625" stop-color="rgb(92.701721%, 28.096008%, 57.466125%)" stop-opacity="1"/>
<stop offset="0.164063" stop-color="rgb(92.384338%, 27.914429%, 57.228088%)" stop-opacity="1"/>
<stop offset="0.171875" stop-color="rgb(92.068481%, 27.732849%, 56.990051%)" stop-opacity="1"/>
<stop offset="0.179688" stop-color="rgb(91.752625%, 27.55127%, 56.752014%)" stop-opacity="1"/>
<stop offset="0.1875" stop-color="rgb(91.435242%, 27.368164%, 56.512451%)" stop-opacity="1"/>
<stop offset="0.195313" stop-color="rgb(91.119385%, 27.186584%, 56.274414%)" stop-opacity="1"/>
<stop offset="0.203125" stop-color="rgb(90.803528%, 27.005005%, 56.036377%)" stop-opacity="1"/>
<stop offset="0.210938" stop-color="rgb(90.487671%, 26.823425%, 55.79834%)" stop-opacity="1"/>
<stop offset="0.21875" stop-color="rgb(90.170288%, 26.64032%, 55.560303%)" stop-opacity="1"/>
<stop offset="0.226562" stop-color="rgb(89.854431%, 26.45874%, 55.322266%)" stop-opacity="1"/>
<stop offset="0.234375" stop-color="rgb(89.538574%, 26.277161%, 55.082703%)" stop-opacity="1"/>
<stop offset="0.242188" stop-color="rgb(89.221191%, 26.095581%, 54.844666%)" stop-opacity="1"/>
<stop offset="0.25" stop-color="rgb(88.905334%, 25.912476%, 54.606628%)" stop-opacity="1"/>
<stop offset="0.257812" stop-color="rgb(88.589478%, 25.730896%, 54.368591%)" stop-opacity="1"/>
<stop offset="0.265625" stop-color="rgb(88.273621%, 25.549316%, 54.130554%)" stop-opacity="1"/>
<stop offset="0.273438" stop-color="rgb(87.956238%, 25.366211%, 53.892517%)" stop-opacity="1"/>
<stop offset="0.28125" stop-color="rgb(87.640381%, 25.184631%, 53.652954%)" stop-opacity="1"/>
<stop offset="0.289063" stop-color="rgb(87.324524%, 25.003052%, 53.414917%)" stop-opacity="1"/>
<stop offset="0.296875" stop-color="rgb(87.007141%, 24.821472%, 53.17688%)" stop-opacity="1"/>
<stop offset="0.304688" stop-color="rgb(86.691284%, 24.638367%, 52.938843%)" stop-opacity="1"/>
<stop offset="0.3125" stop-color="rgb(86.375427%, 24.456787%, 52.700806%)" stop-opacity="1"/>
<stop offset="0.320312" stop-color="rgb(86.05957%, 24.275208%, 52.461243%)" stop-opacity="1"/>
<stop offset="0.328125" stop-color="rgb(85.742188%, 24.093628%, 52.223206%)" stop-opacity="1"/>
<stop offset="0.335938" stop-color="rgb(85.426331%, 23.910522%, 51.985168%)" stop-opacity="1"/>
<stop offset="0.34375" stop-color="rgb(85.110474%, 23.728943%, 51.747131%)" stop-opacity="1"/>
<stop offset="0.351563" stop-color="rgb(84.793091%, 23.547363%, 51.509094%)" stop-opacity="1"/>
<stop offset="0.359375" stop-color="rgb(84.477234%, 23.365784%, 51.271057%)" stop-opacity="1"/>
<stop offset="0.367188" stop-color="rgb(84.161377%, 23.182678%, 51.031494%)" stop-opacity="1"/>
<stop offset="0.375" stop-color="rgb(83.84552%, 23.001099%, 50.793457%)" stop-opacity="1"/>
<stop offset="0.382813" stop-color="rgb(83.528137%, 22.819519%, 50.55542%)" stop-opacity="1"/>
<stop offset="0.390625" stop-color="rgb(83.21228%, 22.637939%, 50.317383%)" stop-opacity="1"/>
<stop offset="0.398438" stop-color="rgb(82.896423%, 22.454834%, 50.079346%)" stop-opacity="1"/>
<stop offset="0.40625" stop-color="rgb(82.579041%, 22.273254%, 49.841309%)" stop-opacity="1"/>
<stop offset="0.414063" stop-color="rgb(82.263184%, 22.091675%, 49.601746%)" stop-opacity="1"/>
<stop offset="0.421875" stop-color="rgb(81.947327%, 21.910095%, 49.363708%)" stop-opacity="1"/>
<stop offset="0.429688" stop-color="rgb(81.63147%, 21.72699%, 49.125671%)" stop-opacity="1"/>
<stop offset="0.4375" stop-color="rgb(81.314087%, 21.54541%, 48.887634%)" stop-opacity="1"/>
<stop offset="0.445312" stop-color="rgb(80.99823%, 21.363831%, 48.649597%)" stop-opacity="1"/>
<stop offset="0.453125" stop-color="rgb(80.682373%, 21.182251%, 48.41156%)" stop-opacity="1"/>
<stop offset="0.460938" stop-color="rgb(80.36499%, 20.999146%, 48.171997%)" stop-opacity="1"/>
<stop offset="0.46875" stop-color="rgb(80.049133%, 20.817566%, 47.93396%)" stop-opacity="1"/>
<stop offset="0.476562" stop-color="rgb(79.733276%, 20.635986%, 47.695923%)" stop-opacity="1"/>
<stop offset="0.484375" stop-color="rgb(79.417419%, 20.452881%, 47.457886%)" stop-opacity="1"/>
<stop offset="0.492188" stop-color="rgb(79.100037%, 20.271301%, 47.219849%)" stop-opacity="1"/>
<stop offset="0.5" stop-color="rgb(78.78418%, 20.089722%, 46.980286%)" stop-opacity="1"/>
<stop offset="0.507812" stop-color="rgb(78.468323%, 19.908142%, 46.742249%)" stop-opacity="1"/>
<stop offset="0.515625" stop-color="rgb(78.15094%, 19.725037%, 46.504211%)" stop-opacity="1"/>
<stop offset="0.523438" stop-color="rgb(77.835083%, 19.543457%, 46.266174%)" stop-opacity="1"/>
<stop offset="0.53125" stop-color="rgb(77.519226%, 19.361877%, 46.028137%)" stop-opacity="1"/>
<stop offset="0.539062" stop-color="rgb(77.203369%, 19.180298%, 45.7901%)" stop-opacity="1"/>
<stop offset="0.546875" stop-color="rgb(76.885986%, 18.997192%, 45.550537%)" stop-opacity="1"/>
<stop offset="0.554688" stop-color="rgb(76.570129%, 18.815613%, 45.3125%)" stop-opacity="1"/>
<stop offset="0.5625" stop-color="rgb(76.254272%, 18.634033%, 45.074463%)" stop-opacity="1"/>
<stop offset="0.570312" stop-color="rgb(75.93689%, 18.452454%, 44.836426%)" stop-opacity="1"/>
<stop offset="0.578125" stop-color="rgb(75.621033%, 18.269348%, 44.598389%)" stop-opacity="1"/>
<stop offset="0.585937" stop-color="rgb(75.305176%, 18.087769%, 44.360352%)" stop-opacity="1"/>
<stop offset="0.59375" stop-color="rgb(74.989319%, 17.906189%, 44.120789%)" stop-opacity="1"/>
<stop offset="0.601562" stop-color="rgb(74.671936%, 17.724609%, 43.882751%)" stop-opacity="1"/>
<stop offset="0.609375" stop-color="rgb(74.356079%, 17.541504%, 43.644714%)" stop-opacity="1"/>
<stop offset="0.617188" stop-color="rgb(74.040222%, 17.359924%, 43.406677%)" stop-opacity="1"/>
<stop offset="0.625" stop-color="rgb(73.722839%, 17.178345%, 43.16864%)" stop-opacity="1"/>
<stop offset="0.632812" stop-color="rgb(73.406982%, 16.996765%, 42.930603%)" stop-opacity="1"/>
<stop offset="0.640625" stop-color="rgb(73.091125%, 16.81366%, 42.69104%)" stop-opacity="1"/>
<stop offset="0.648438" stop-color="rgb(72.775269%, 16.63208%, 42.453003%)" stop-opacity="1"/>
<stop offset="0.65625" stop-color="rgb(72.457886%, 16.4505%, 42.214966%)" stop-opacity="1"/>
<stop offset="0.664062" stop-color="rgb(72.142029%, 16.267395%, 41.976929%)" stop-opacity="1"/>
<stop offset="0.671875" stop-color="rgb(71.826172%, 16.085815%, 41.738892%)" stop-opacity="1"/>
<stop offset="0.679688" stop-color="rgb(71.508789%, 15.904236%, 41.499329%)" stop-opacity="1"/>
<stop offset="0.6875" stop-color="rgb(71.192932%, 15.722656%, 41.261292%)" stop-opacity="1"/>
<stop offset="0.695312" stop-color="rgb(70.877075%, 15.539551%, 41.023254%)" stop-opacity="1"/>
<stop offset="0.703125" stop-color="rgb(70.561218%, 15.357971%, 40.785217%)" stop-opacity="1"/>
<stop offset="0.710938" stop-color="rgb(70.243835%, 15.176392%, 40.54718%)" stop-opacity="1"/>
<stop offset="0.71875" stop-color="rgb(69.927979%, 14.994812%, 40.309143%)" stop-opacity="1"/>
<stop offset="0.726562" stop-color="rgb(69.612122%, 14.811707%, 40.06958%)" stop-opacity="1"/>
<stop offset="0.734375" stop-color="rgb(69.294739%, 14.630127%, 39.831543%)" stop-opacity="1"/>
<stop offset="0.742188" stop-color="rgb(68.978882%, 14.448547%, 39.593506%)" stop-opacity="1"/>
<stop offset="0.75" stop-color="rgb(68.663025%, 14.266968%, 39.355469%)" stop-opacity="1"/>
<stop offset="0.757812" stop-color="rgb(68.347168%, 14.083862%, 39.117432%)" stop-opacity="1"/>
<stop offset="0.765625" stop-color="rgb(68.029785%, 13.902283%, 38.879395%)" stop-opacity="1"/>
<stop offset="0.773438" stop-color="rgb(67.713928%, 13.720703%, 38.639832%)" stop-opacity="1"/>
<stop offset="0.78125" stop-color="rgb(67.398071%, 13.539124%, 38.401794%)" stop-opacity="1"/>
<stop offset="0.789063" stop-color="rgb(67.080688%, 13.356018%, 38.163757%)" stop-opacity="1"/>
<stop offset="0.796875" stop-color="rgb(66.764832%, 13.174438%, 37.92572%)" stop-opacity="1"/>
<stop offset="0.804688" stop-color="rgb(66.448975%, 12.992859%, 37.687683%)" stop-opacity="1"/>
<stop offset="0.8125" stop-color="rgb(66.133118%, 12.811279%, 37.44812%)" stop-opacity="1"/>
<stop offset="0.820312" stop-color="rgb(65.815735%, 12.628174%, 37.210083%)" stop-opacity="1"/>
<stop offset="0.828125" stop-color="rgb(65.499878%, 12.446594%, 36.972046%)" stop-opacity="1"/>
<stop offset="0.835938" stop-color="rgb(65.184021%, 12.265015%, 36.734009%)" stop-opacity="1"/>
<stop offset="0.84375" stop-color="rgb(64.866638%, 12.083435%, 36.495972%)" stop-opacity="1"/>
<stop offset="0.851563" stop-color="rgb(64.550781%, 11.90033%, 36.257935%)" stop-opacity="1"/>
<stop offset="0.859375" stop-color="rgb(64.352417%, 11.787415%, 36.108398%)" stop-opacity="1"/>
<stop offset="0.875" stop-color="rgb(64.312744%, 11.764526%, 36.077881%)" stop-opacity="1"/>
<stop offset="1" stop-color="rgb(64.312744%, 11.764526%, 36.077881%)" stop-opacity="1"/>
</linearGradient>
</defs>
<g clip-path="url(#clip-0)">
<path fill-rule="nonzero" fill="url(#linear-pattern-0)" d="M 1936.5 -1936.5 L -1936.5 1936.5 L 1936.5 5809.5 L 5809.5 1936.5 Z M 1936.5 -1936.5 "/>
</g>
<path fill-rule="evenodd" fill="rgb(100%, 100%, 100%)" fill-opacity="1" d="M 2000.898438 1132.601562 C 1994.898438 1137.101562 1870.101562 1233.898438 1953.699219 1422.5 C 1973.300781 1316.199219 2040.199219 1245 2155.5 1209.601562 L 2157.199219 1209.101562 C 2164.398438 1207.398438 2323.601562 1169.699219 2424 1269.601562 C 2537.699219 1220.800781 2667.199219 1231.699219 2714.601562 1384.101562 C 2716.300781 1389.5 2717.800781 1395.101562 2719.199219 1400.800781 C 2744.5 1329.699219 2753.101562 1245.300781 2679.699219 1125.398438 C 2678.398438 1123.101562 2677.300781 1120.800781 2676.5 1118.199219 C 2675.800781 1116.101562 2656.898438 1059.5 2583.898438 1014.699219 C 2484.5 953.800781 2331.800781 945.199219 2142.601562 990.101562 C 2140.199219 990.699219 2137.800781 991 2135.398438 991 L 1917.5 991 L 2005.398438 1086.398438 C 2018 1100.101562 2015.800781 1121.601562 2000.898438 1132.601562 "/>
<path fill-rule="evenodd" fill="rgb(100%, 100%, 100%)" fill-opacity="1" d="M 2023.800781 1399.199219 C 2014.5 1425.601562 2010.300781 1454.101562 2010.300781 1483.101562 L 2010.300781 1527.101562 C 2010.398438 1528.398438 2010.398438 1529.601562 2010.300781 1530.898438 L 2010.300781 1660.898438 C 2010.398438 1748.800781 2044.699219 1831.300781 2107 1893.300781 C 2169.5 1955.398438 2251 1988.601562 2339.898438 1988.601562 C 2519.601562 1987.601562 2665.699219 1840.5 2665.699219 1660.898438 L 2665.699219 1537.5 C 2664.800781 1488.800781 2669.699219 1450.300781 2655 1402.699219 C 2640.800781 1356.898438 2617.199219 1327.101562 2584.898438 1314.101562 C 2518.5 1287.398438 2432.199219 1334.5 2431.300781 1335 C 2418.101562 1342.300781 2401.5 1339.101562 2391.898438 1327.300781 C 2320.699219 1238.300781 2183.5 1267 2172.398438 1269.5 C 2070.101562 1301 2039.199219 1355.398438 2023.800781 1399.199219 Z M 2340.101562 1988.699219 L 2340.101562 1988.699219 "/>
<path fill-rule="evenodd" fill="rgb(100%, 100%, 100%)" fill-opacity="1" d="M 2546.800781 1989.898438 C 2487 2028 2416.199219 2050.398438 2340.398438 2050.800781 C 2264.898438 2051.398438 2192.199219 2030.199219 2129.898438 1990.699219 L 2129.898438 2096.601562 L 2338.398438 2246.199219 L 2546.800781 2096.601562 Z M 2340.5 2050.699219 L 2340.5 2050.699219 "/>
<path fill-rule="evenodd" fill="rgb(100%, 100%, 100%)" fill-opacity="1" d="M 2583.199219 2146.800781 L 2391.601562 2284.398438 L 2573.800781 2415.199219 C 2574 2415.398438 2574.398438 2415.398438 2574.699219 2415.101562 L 2774.601562 2209.601562 L 2583.199219 2146.800781 "/>
<path fill-rule="evenodd" fill="rgb(100%, 100%, 100%)" fill-opacity="1" d="M 2369.300781 2344.800781 L 2369.300781 2845.5 L 2903.199219 2845.5 L 2903.199219 2674.300781 C 2903.199219 2657.101562 2917.101562 2643.300781 2934.199219 2643.300781 C 2951.398438 2643.300781 2965.199219 2657.199219 2965.199219 2674.300781 L 2965.199219 2845.5 L 3201.398438 2845.5 C 3218.300781 2845.5 3231.898438 2831.800781 3231.898438 2815 L 3231.898438 2576.601562 C 3231.898438 2452.101562 3153.699219 2339.398438 3037.199219 2296 L 2840.199219 2231.398438 L 2619.199219 2458.699219 C 2607 2471.199219 2590.5 2477.601562 2574 2477.601562 C 2561.199219 2477.601562 2548.398438 2473.699219 2537.5 2465.898438 L 2369.300781 2344.800781 "/>
<path fill-rule="evenodd" fill="rgb(100%, 100%, 100%)" fill-opacity="1" d="M 1832.300781 2250.699219 L 1832.300781 2845.398438 L 2307.101562 2845.398438 L 2307.101562 2345.101562 L 2139.101562 2465.601562 C 2114.101562 2483.5 2079 2480.601562 2057.398438 2458.398438 L 1836.398438 2231.101562 L 1831 2232.800781 C 1832 2238.699219 1832.300781 2244.699219 1832.300781 2250.699219 "/>
<path fill-rule="evenodd" fill="rgb(100%, 100%, 100%)" fill-opacity="1" d="M 1902.199219 2209.601562 L 2102 2415 C 2102.199219 2415.300781 2102.601562 2415.300781 2102.898438 2415.199219 L 2285.101562 2284.398438 L 2093.398438 2146.898438 L 1902.199219 2209.601562 "/>
<path fill-rule="evenodd" fill="rgb(100%, 100%, 100%)" fill-opacity="1" d="M 1546.101562 2186.300781 L 868.398438 2186.300781 L 868.398438 2433.199219 C 868.398438 2482.199219 908.300781 2522.101562 957.300781 2522.101562 L 1041.800781 2522.101562 L 1041.800781 2451.5 C 1041.898438 2435.5 1055.898438 2421.300781 1072.800781 2421.300781 L 1341.898438 2421.300781 C 1353.398438 2421.300781 1363.5 2427.601562 1368.800781 2436.898438 C 1371.5 2441.699219 1372.898438 2446.898438 1372.898438 2452.300781 L 1372.898438 2522.101562 L 1457.398438 2522.101562 C 1506.398438 2522.101562 1546.300781 2482.199219 1546.300781 2433.199219 L 1546.300781 2186.300781 L 1546.101562 2186.300781 "/>
<path fill-rule="evenodd" fill="rgb(100%, 100%, 100%)" fill-opacity="1" d="M 1388.800781 1933 L 1025.601562 1933 C 1005.101562 1933 988.300781 1949.800781 988.300781 1970.300781 L 988.300781 2124.199219 L 1426.199219 2124.199219 L 1426.199219 1970.300781 C 1426.199219 1949.699219 1409.398438 1933 1388.800781 1933 "/>
<path fill-rule="evenodd" fill="rgb(100%, 100%, 100%)" fill-opacity="1" d="M 1103.699219 2483.398438 L 1310.699219 2483.398438 L 1310.699219 2623 L 1103.699219 2623 L 1103.699219 2483.398438 "/>
<path fill-rule="evenodd" fill="rgb(100%, 100%, 100%)" fill-opacity="1" d="M 1608.199219 2433.300781 C 1608.199219 2516.601562 1540.398438 2584.300781 1457.199219 2584.300781 L 1372.699219 2584.300781 L 1372.699219 2654.101562 C 1372.699219 2671.300781 1358.800781 2685.199219 1341.699219 2685.101562 L 1072.601562 2685.101562 C 1055.398438 2685.101562 1041.5 2671.199219 1041.5 2654.101562 L 1041.5 2584.300781 L 957.101562 2584.300781 C 873.898438 2584.300781 806.101562 2516.601562 806.101562 2433.300781 L 806.101562 2186.398438 L 708.398438 2186.398438 C 672.898438 2186.398438 644 2215.300781 644 2250.800781 L 644 2855.800781 C 644 2891.300781 672.800781 2920.199219 708.398438 2920.199219 L 1705.800781 2920.199219 C 1741.898438 2920.199219 1770.199219 2890.800781 1770.199219 2855.800781 L 1770.199219 2250.699219 C 1770.199219 2215.800781 1741.898438 2186.300781 1705.800781 2186.300781 L 1608.101562 2186.300781 L 1608.101562 2433.300781 L 1608.199219 2433.300781 "/>
</svg>
